<svg version="1.1" id="Layer_1" xmlns:x="ns_extend;" xmlns:i="ns_ai;" xmlns:graph="ns_graphs;" xmlns="http://www.w3.org/2000/svg" xmlns:xlink="http://www.w3.org/1999/xlink" x="0px" y="0px" viewBox="0 0 156.2 49" style="enable-background:new 0 0 156.2 49;" xml:space="preserve">
 <style type="text/css">
  .st0{fill:#13C636;}
 </style>
 <metadata>
  <sfw xmlns="ns_sfw;">
   <slices>
   </slices>
   <sliceSourceBounds bottomLeftOrigin="true" height="49" width="156.2" x="122.2" y="-224.7">
   </sliceSourceBounds>
  </sfw>
 </metadata>
 <g>
  <path class="st0" d="M155.8,18.1c-0.9-3.4-7.9-11.2-13-17.5c-0.1-0.1-0.4-0.6-1-0.6c-0.5,0-0.9,0.5-0.7,0.9s5.1,10.6,4.2,13.9
		c-0.9,3.4-5.4,2.7-6.1,2.7c-0.4,0-0.1,0.3,0.3,0.7c2.5,2.2,4.1,5.3,4.1,9.3v3c0,0.1,0,0.1,0.1,0.1
		C149.4,30.1,158.1,26.6,155.8,18.1">
  </path>
  <path class="st0" d="M133.7,37.8c0,2.9-3.9,4.5-6.4,4.5c-2.7,0-6.5-1.6-6.5-4.5V27.6c0-2.9,3.8-4.2,6.5-4.2c2.5,0,6.4,1.4,6.4,4.2
		V37.8z M127.3,17c-6,0.1-13,3.5-13,10.5v10.7c0,7.1,7,10.5,13,10.5c5.9-0.1,12.9-3.4,12.9-10.5V27.6
		C140.2,20.6,133.2,17.1,127.3,17">
  </path>
  <path class="st0" d="M88.5,37.8c0,2.9-3.9,4.5-6.4,4.5c-2.7,0-6.5-1.6-6.5-4.5V27.6c0-2.9,3.8-4.2,6.5-4.2c2.5,0,6.4,1.4,6.4,4.2
		V37.8z M82,17c-6,0.1-13,3.5-13,10.5v10.7c0,7.1,7,10.5,13,10.5c5.9-0.1,12.9-3.4,12.9-10.5V27.6C94.9,20.6,87.9,17.1,82,17">
  </path>
  <path class="st0" d="M16.8,18.2c0.4-0.4,0.7-0.7,0.3-0.7c-0.7,0-5.2,0.7-6.1-2.7s4-13.5,4.2-13.9C15.3,0.5,15,0,14.4,0
		c-0.5,0-0.9,0.6-1,0.6c-5,6.3-12.1,14.1-13,17.5c-2.3,8.5,6.6,12,12.2,12.6c0.1,0,0.1-0.1,0.1-0.1v-3
		C12.8,23.5,14.3,20.4,16.8,18.2">
  </path>
  <path class="st0" d="M68.6,19.4c-4.8-1.3-8.3-1.8-13.5-1.8c-5.1,0-8.7,0.5-13.5,1.8c-0.2,0.1-0.3,0.3-0.2,0.4
		C43,21.2,43.7,23,44,25c2.6-0.6,5-1,7.8-1.2v24.7c0,0.1,0.1,0.1,0.2,0.1h6.2c0.1,0,0.2,0,0.2-0.1V23.8c2.7,0.2,4.9,0.5,7.5,1.2
		c0.4-2,1.2-3.9,2.9-5.2C68.8,19.6,68.7,19.4,68.6,19.4">
  </path>
  <path class="st0" d="M114.5,17.3c-0.5-0.1-1.8-0.3-3-0.2c-5.9,0.2-12.6,3.7-12.6,10.5v21.1c0,0.1,0.1,0.1,0.2,0.1h6.2
		c0.1,0,0.2,0,0.2-0.1V27.6c0-2.3,2.8-3.6,5.1-4.1c0.7-2.2,2-3.9,4-5.5C114.9,17.7,114.8,17.3,114.5,17.3">
  </path>
  <path class="st0" d="M34.7,29.4c0,0.1,0,0.1-0.1,0.2c0,0.1-0.1,0.1-0.2,0.1H22.6v-2.1c0-2.9,3.5-4.3,6.2-4.3c2.6,0,5.9,1.4,5.9,4.3
		C34.7,27.6,34.7,29.4,34.7,29.4z M28.8,16.8C22.7,16.9,16,20.4,16,27.5v10.8c0,7.2,6.7,10.6,12.8,10.7c4.4,0,9.3-1.8,11.7-5.7
		c0.1-0.1,0-0.3-0.1-0.4c-2.1-1.2-3.3-1.9-5.4-3c-0.1,0-0.1,0-0.2,0.1c-1.1,1.9-4,2.9-6,2.9c-2.7,0-6.2-1.7-6.2-4.6v-3.2h16.9
		c0.9,0,1.6-0.7,1.6-1.6v-5.9C41.1,20.4,34.8,16.9,28.8,16.8">
  </path>
 </g>
</svg>